<?xml version="1.0" standalone="no"?>
<!DOCTYPE svg PUBLIC "-//W3C//DTD SVG 20010904//EN"
 "http://www.w3.org/TR/2001/REC-SVG-20010904/DTD/svg10.dtd">
<svg version="1.0" xmlns="http://www.w3.org/2000/svg"
 width="165.000000pt" height="224.000000pt" viewBox="0 0 165.000000 224.000000"
 preserveAspectRatio="xMidYMid meet">

<g transform="translate(0.000000,224.000000) scale(0.100000,-0.100000)"
fill="#000000" stroke="none">
<path d="M767 2181 c-37 -28 -82 -54 -100 -59 -64 -20 -87 -23 -87 -11 0 18
-80 3 -142 -26 -61 -29 -144 -94 -170 -134 -10 -14 -18 -40 -18 -57 0 -17 -10
-53 -21 -80 -20 -43 -21 -54 -11 -107 8 -43 8 -72 0 -107 -9 -41 -8 -56 5 -92
10 -24 17 -61 17 -83 0 -67 21 -259 31 -277 12 -23 12 -85 0 -92 -5 -3 -14 8
-21 24 -13 31 -37 56 -45 48 -3 -3 6 -17 20 -32 24 -26 46 -90 60 -169 12 -75
21 -25 23 140 3 175 30 384 58 452 22 53 72 100 124 115 36 11 68 11 145 4 55
-5 178 -7 273 -4 255 8 352 -15 390 -96 34 -72 61 -263 65 -463 2 -99 8 -180
13 -180 13 0 27 89 25 164 -1 35 4 82 10 105 32 113 42 181 44 291 1 66 7 136
13 155 22 64 15 112 -28 197 -26 53 -57 97 -93 130 l-52 50 27 25 c52 47 26
99 -29 60 -32 -23 -57 -17 -106 24 -44 37 -102 64 -137 64 -18 0 -60 16 -94
35 -85 47 -107 45 -189 -14z"/>
<path d="M506 1339 c-68 -16 -111 -51 -90 -71 3 -4 26 1 50 9 32 11 64 13 107
9 34 -3 75 -7 92 -8 21 -2 30 2 33 15 7 34 -117 65 -192 46z"/>
<path d="M1036 1336 c-51 -14 -68 -30 -59 -54 4 -10 14 -12 37 -7 72 16 157
17 201 2 44 -15 64 -9 49 14 -11 18 -85 47 -134 53 -25 3 -66 -1 -94 -8z"/>
<path d="M485 1168 c-29 -16 -65 -50 -65 -61 0 -6 8 -3 18 5 9 9 26 20 37 26
19 9 20 7 17 -32 -5 -60 25 -96 81 -96 26 0 37 3 29 9 -17 11 11 36 32 28 15
-6 26 12 26 44 0 23 8 24 32 2 22 -20 24 -6 3 24 -28 40 -78 63 -136 63 -30 0
-63 -6 -74 -12z m73 -35 c-2 -10 -10 -18 -18 -18 -8 0 -16 8 -18 18 -2 12 3
17 18 17 15 0 20 -5 18 -17z"/>
<path d="M1045 1168 c-29 -16 -65 -50 -77 -73 -11 -19 -10 -19 9 -2 26 23 33
22 33 -8 0 -36 42 -75 80 -75 17 0 29 4 25 9 -3 5 5 17 17 25 17 12 24 13 29
4 12 -19 31 41 23 75 -7 33 1 31 45 -7 22 -19 23 -19 18 -3 -4 10 -7 20 -7 23
0 2 -18 13 -40 24 -43 22 -122 26 -155 8z m35 -32 c0 -20 -19 -31 -32 -18 -6
6 -7 15 -4 21 10 16 36 13 36 -3z"/>
<path d="M1454 1122 c-13 -9 -44 -54 -44 -65 0 -4 14 8 31 28 30 33 36 53 13
37z"/>
<path d="M99 230 c-14 -19 -35 -51 -46 -70 -22 -37 -56 -140 -49 -148 3 -2
374 -5 825 -5 638 -2 821 1 821 10 0 26 -33 107 -68 166 -34 58 -36 60 -43 37
-4 -14 -7 -57 -8 -96 -1 -55 -5 -75 -19 -87 -17 -15 -78 -17 -669 -17 -643 0
-651 0 -677 21 -22 18 -26 28 -27 77 0 31 -4 77 -7 102 l-7 45 -26 -35z"/>
</g>
</svg>
